<?xml version="1.0" encoding="utf-8"?>
<!-- Generator: Adobe Illustrator 15.1.0, SVG Export Plug-In . SVG Version: 6.00 Build 0)  -->
<!DOCTYPE svg PUBLIC "-//W3C//DTD SVG 1.1//EN" "http://www.w3.org/Graphics/SVG/1.1/DTD/svg11.dtd">
<svg version="1.1" id="Слой_1" xmlns="http://www.w3.org/2000/svg" xmlns:xlink="http://www.w3.org/1999/xlink" x="0px" y="0px"
	 width="103px" height="103px" viewBox="0 0 103 103" enable-background="new 0 0 103 103" xml:space="preserve">
<g>
	<defs>
		<rect id="SVGID_1_" width="103" height="103"/>
	</defs>
	<clipPath id="SVGID_2_">
		<use xlink:href="#SVGID_1_"  overflow="visible"/>
	</clipPath>
	
		<circle clip-path="url(#SVGID_2_)" fill="none" stroke="#d2393c" stroke-width="3" stroke-miterlimit="10" cx="51.5" cy="51.5" r="50"/>
	<rect fill="#d2393c" x="47.901" y="67.1" clip-path="url(#SVGID_2_)" width="8.4" height="2.4"/>
	<path fill="#d2393c" clip-path="url(#SVGID_2_)" d="M87.394,71.659c-0.056-0.41-0.134-0.809-0.232-1.203c-0.005-0.018-0.006-0.037-0.012-0.055
		c-0.002-0.007-0.006-0.013-0.008-0.02c-1.21-4.642-5.425-8.082-10.439-8.082h-7.263c-0.132-1.715-0.525-3.356-1.17-4.872
		l18.332-4.766c0.313-0.081,0.577-0.284,0.737-0.562c0.161-0.279,0.203-0.61,0.118-0.919l-9.601-34.8
		c-0.084-0.309-0.288-0.571-0.566-0.726c-0.278-0.158-0.606-0.196-0.914-0.111l-60,16.8c-0.308,0.086-0.569,0.291-0.725,0.57
		c-0.156,0.28-0.193,0.608-0.107,0.916l8.138,28.482c-4.528,0.114-8.181,3.83-8.181,8.388v2.4c0,4.256,3.186,7.774,7.296,8.317
		c0.54,3.441,3.515,6.082,7.104,6.082c3.561,0,6.517-2.601,7.092-6h25.417c0.573,3.399,3.53,6,7.092,6s6.518-2.601,7.092-6h9.708
		c0.664,0,1.2-0.537,1.2-1.2v-4.8v-2.399c0-0.439-0.033-0.869-0.085-1.296C87.41,71.756,87.4,71.708,87.394,71.659 M85.013,71.943
		c0.057,0.39,0.089,0.777,0.089,1.157V74.3H83.9c-0.661,0-1.198-0.538-1.198-1.199c0-0.663,0.537-1.2,1.198-1.2h1.104
		C85.008,71.914,85.01,71.929,85.013,71.943 M47.207,47.9c-0.332-0.758-0.506-1.574-0.506-2.4c0-3.309,2.692-6,6-6s6,2.691,6,6
		c0,1.037-0.266,2.038-0.771,2.933c-0.045-0.012-0.089-0.025-0.134-0.038c-0.195-0.05-0.394-0.094-0.591-0.136
		c-0.121-0.027-0.243-0.05-0.365-0.074c-0.267-0.05-0.536-0.097-0.807-0.133c-0.099-0.013-0.196-0.024-0.293-0.035
		c-0.125-0.014-0.249-0.032-0.375-0.044C54.879,47.93,54.394,47.9,53.9,47.9H47.207z M63.11,50.908
		c-0.086-0.063-0.182-0.111-0.27-0.173c-0.162-0.114-0.326-0.223-0.493-0.331c-0.2-0.131-0.404-0.255-0.608-0.375
		c-0.12-0.07-0.236-0.146-0.358-0.213c-0.063-0.034-0.129-0.065-0.192-0.098c-0.322-0.172-0.65-0.33-0.983-0.478
		c0.582-1.158,0.896-2.424,0.896-3.74c0-4.631-3.77-8.4-8.4-8.4c-4.63,0-8.4,3.769-8.4,8.4c0,0.815,0.133,1.621,0.366,2.4h-2.766
		c-0.525,0-1.045,0.028-1.557,0.079c-0.065,0.006-0.129,0.018-0.192,0.025c-0.114,0.013-0.227,0.036-0.341,0.052
		c-0.329,0.044-0.659,0.085-0.98,0.15c-0.147,0.03-0.29,0.071-0.435,0.104c-0.089,0.02-0.175,0.044-0.264,0.066
		c-0.256,0.064-0.513,0.122-0.764,0.198c-0.202,0.062-0.397,0.138-0.596,0.208c-0.053,0.019-0.108,0.037-0.163,0.056
		c-0.025,0.01-0.05,0.017-0.076,0.027c-0.191,0.07-0.383,0.135-0.571,0.213c-0.199,0.083-0.391,0.178-0.586,0.268
		c-0.253,0.117-0.508,0.233-0.754,0.363c-0.192,0.102-0.378,0.215-0.565,0.326c-0.237,0.138-0.473,0.275-0.701,0.426
		c-0.184,0.121-0.36,0.25-0.539,0.379c-0.218,0.157-0.437,0.316-0.647,0.484c-0.172,0.137-0.339,0.284-0.506,0.429
		c-0.202,0.175-0.401,0.354-0.593,0.539c-0.155,0.15-0.303,0.304-0.451,0.459c-0.021,0.022-0.042,0.044-0.063,0.066
		c-0.167,0.177-0.33,0.356-0.489,0.542c-0.146,0.17-0.287,0.344-0.424,0.52c-0.079,0.1-0.164,0.191-0.238,0.292l-2.937-11.744
		c1.894-1.304,3.112-3.344,3.377-5.597l37.949-10.35c1.241,1.728,2.791,3.26,5.585,3.407l3.148,11.543
		c-1.981,1.673-2.536,3.924-3.123,6.295l-0.101,0.4L63.11,50.908z M28.766,62.222c0.017-0.169,0.047-0.332,0.07-0.499
		c0.035-0.261,0.068-0.521,0.119-0.777c0.034-0.175,0.081-0.348,0.123-0.52c0.058-0.24,0.114-0.48,0.185-0.716
		c0.053-0.175,0.116-0.346,0.175-0.518c0.078-0.225,0.155-0.449,0.245-0.667c0.069-0.172,0.148-0.339,0.226-0.507
		c0.097-0.212,0.194-0.421,0.301-0.625c0.086-0.165,0.18-0.325,0.272-0.486c0.033-0.057,0.068-0.11,0.101-0.167
		c0.284-0.476,0.594-0.929,0.931-1.359c0.006-0.009,0.012-0.017,0.019-0.025c0.351-0.445,0.729-0.865,1.131-1.259
		c0.004-0.005,0.008-0.01,0.013-0.014c0.401-0.391,0.825-0.755,1.269-1.091c0.011-0.009,0.023-0.017,0.034-0.026
		c1.327-0.998,2.834-1.739,4.438-2.184c0.073-0.02,0.146-0.038,0.219-0.056c0.435-0.113,0.878-0.198,1.324-0.267
		c0.067-0.009,0.133-0.021,0.2-0.031c0.053-0.007,0.106-0.016,0.159-0.022c0.522-0.065,1.049-0.106,1.581-0.106h3.6v12H28.763
		C28.765,62.275,28.764,62.247,28.766,62.222 M47.901,50.3h6c0.533,0,1.058,0.044,1.578,0.107c0.036,0.005,0.072,0.008,0.108,0.013
		c0.113,0.014,0.226,0.031,0.338,0.049c0.434,0.067,0.863,0.156,1.285,0.265c0.176,0.046,0.35,0.098,0.524,0.153
		c0.412,0.125,0.818,0.261,1.215,0.424c0.003,0.001,0.008,0.004,0.011,0.005c0.129,0.054,0.255,0.116,0.381,0.173
		c0.35,0.16,0.694,0.335,1.028,0.522c0.063,0.035,0.125,0.07,0.186,0.106c0.12,0.071,0.24,0.143,0.358,0.218
		c0.277,0.174,0.546,0.364,0.81,0.559c0.109,0.081,0.221,0.154,0.329,0.239c0.114,0.09,0.222,0.187,0.333,0.28
		c0.252,0.212,0.497,0.433,0.734,0.664c0.146,0.142,0.293,0.284,0.432,0.434c0.318,0.343,0.624,0.697,0.905,1.074
		c0.097,0.127,0.181,0.263,0.271,0.394c0.217,0.312,0.422,0.634,0.613,0.968c0.924,1.604,1.53,3.416,1.705,5.353H47.901V50.3z
		 M75.865,18.18l8.957,32.464L67.14,55.243c-0.053-0.085-0.119-0.16-0.174-0.243c-0.215-0.33-0.448-0.646-0.688-0.957
		c-0.201-0.266-0.409-0.523-0.629-0.772c-0.134-0.154-0.271-0.306-0.41-0.453l9.379-2.558c0.419-0.114,0.742-0.445,0.849-0.867
		l0.272-1.089c0.58-2.352,1.039-4.211,2.829-5.404c0.43-0.285,0.627-0.816,0.491-1.314l-3.6-13.2
		c-0.145-0.523-0.617-0.885-1.159-0.885h-0.473c-2.126,0-3.115-0.946-4.528-3.066c-0.287-0.431-0.822-0.626-1.314-0.492l-39.6,10.8
		c-0.522,0.143-0.885,0.617-0.885,1.158c0,1.851-0.92,3.571-2.461,4.598l-0.605,0.403c-0.422,0.281-0.622,0.799-0.498,1.289
		l3.6,14.4c0.038,0.152,0.106,0.292,0.196,0.415c-0.01,0.022-0.018,0.044-0.028,0.065c-0.095,0.209-0.187,0.417-0.273,0.63
		c-0.1,0.248-0.19,0.5-0.276,0.754c-0.075,0.218-0.149,0.436-0.215,0.659c-0.076,0.259-0.141,0.521-0.203,0.787
		c-0.054,0.227-0.109,0.451-0.152,0.681c-0.052,0.271-0.089,0.546-0.126,0.822c-0.031,0.231-0.066,0.461-0.087,0.694
		c-0.006,0.068-0.02,0.136-0.025,0.203h-0.17L18.185,34.33L75.865,18.18z M29.901,85.101c-2.647,0-4.8-2.153-4.8-4.801
		c0-2.646,2.153-4.8,4.8-4.8s4.8,2.153,4.8,4.8C34.701,82.947,32.548,85.101,29.901,85.101 M69.501,85.101
		c-2.647,0-4.8-2.153-4.8-4.801c0-2.646,2.152-4.8,4.8-4.8c2.646,0,4.8,2.153,4.8,4.8C74.301,82.947,72.147,85.101,69.501,85.101
		 M76.602,79.101c-0.005-0.028-0.016-0.054-0.021-0.081c-0.066-0.364-0.16-0.72-0.278-1.064c-0.021-0.063-0.046-0.125-0.069-0.187
		c-0.129-0.344-0.279-0.675-0.458-0.99c-0.026-0.046-0.055-0.089-0.082-0.135c-0.192-0.326-0.404-0.64-0.646-0.931
		c-0.006-0.008-0.014-0.014-0.021-0.021c-0.241-0.29-0.508-0.557-0.793-0.805c-0.031-0.027-0.061-0.058-0.093-0.085
		c-0.28-0.235-0.579-0.446-0.892-0.639c-0.054-0.032-0.104-0.065-0.159-0.096c-0.313-0.181-0.638-0.337-0.979-0.471
		c-0.058-0.022-0.117-0.045-0.178-0.065c-0.35-0.126-0.708-0.229-1.079-0.3c-0.047-0.011-0.096-0.014-0.144-0.022
		c-0.395-0.065-0.796-0.108-1.209-0.108s-0.815,0.043-1.208,0.108c-0.048,0.009-0.096,0.013-0.145,0.022
		c-0.371,0.07-0.729,0.174-1.079,0.3c-0.06,0.021-0.119,0.042-0.178,0.065c-0.34,0.134-0.666,0.289-0.979,0.471
		c-0.055,0.03-0.105,0.063-0.158,0.096c-0.314,0.192-0.612,0.402-0.893,0.639c-0.031,0.027-0.061,0.058-0.093,0.085
		c-0.284,0.248-0.551,0.515-0.793,0.805c-0.007,0.008-0.015,0.014-0.021,0.021c-0.241,0.291-0.454,0.605-0.647,0.933
		c-0.025,0.044-0.055,0.087-0.08,0.133c-0.178,0.315-0.329,0.647-0.459,0.991c-0.022,0.062-0.046,0.123-0.067,0.187
		c-0.119,0.345-0.215,0.699-0.279,1.065c-0.004,0.026-0.016,0.053-0.021,0.08H37.002c-0.005-0.027-0.016-0.054-0.022-0.08
		c-0.066-0.365-0.16-0.721-0.278-1.065c-0.022-0.063-0.046-0.125-0.069-0.187c-0.129-0.344-0.281-0.675-0.458-0.99
		c-0.027-0.046-0.055-0.089-0.082-0.134c-0.193-0.327-0.406-0.641-0.646-0.931c-0.007-0.009-0.015-0.015-0.021-0.022
		c-0.242-0.289-0.509-0.557-0.793-0.805c-0.032-0.027-0.061-0.058-0.094-0.085c-0.279-0.235-0.578-0.446-0.891-0.639
		c-0.053-0.032-0.105-0.063-0.159-0.096c-0.312-0.181-0.638-0.337-0.978-0.471c-0.058-0.022-0.118-0.044-0.179-0.065
		c-0.349-0.126-0.708-0.229-1.078-0.3c-0.047-0.011-0.096-0.014-0.144-0.022c-0.394-0.066-0.796-0.109-1.209-0.109
		c-0.406,0-0.802,0.042-1.191,0.105c-0.051,0.009-0.102,0.015-0.154,0.025c-0.366,0.068-0.72,0.17-1.064,0.292
		c-0.063,0.021-0.124,0.045-0.185,0.068c-0.336,0.131-0.66,0.283-0.97,0.461c-0.052,0.03-0.103,0.063-0.154,0.095
		c-0.314,0.189-0.615,0.398-0.894,0.633c-0.024,0.02-0.047,0.043-0.071,0.064c-0.275,0.236-0.532,0.493-0.768,0.768
		c-0.022,0.024-0.047,0.049-0.069,0.074c-0.234,0.277-0.441,0.577-0.631,0.89c-0.032,0.053-0.065,0.104-0.096,0.159
		c-0.177,0.309-0.33,0.632-0.461,0.967c-0.024,0.062-0.045,0.124-0.068,0.187c-0.123,0.344-0.223,0.697-0.293,1.063
		c-0.002,0.016-0.011,0.031-0.013,0.049c-2.794-0.511-4.918-2.963-4.918-5.9v-2.4c0-3.308,2.692-6,6-6h1.372h2.228h40.8h8.401
		c3.341,0,6.225,1.967,7.576,4.8H83.9c-1.984,0-3.6,1.615-3.6,3.601c0,1.984,1.615,3.6,3.6,3.6h1.201v2.4H76.602z"/>
	<rect fill="#d2393c" x="68.301" y="79.1" clip-path="url(#SVGID_2_)" width="2.4" height="2.4"/>
	<rect fill="#d2393c" x="28.701" y="79.1" clip-path="url(#SVGID_2_)" width="2.4" height="2.4"/>
</g>
</svg>
