<?xml version="1.0" encoding="utf-8"?>
<!-- Generator: Adobe Illustrator 15.1.0, SVG Export Plug-In . SVG Version: 6.00 Build 0)  -->
<!DOCTYPE svg PUBLIC "-//W3C//DTD SVG 1.1//EN" "http://www.w3.org/Graphics/SVG/1.1/DTD/svg11.dtd">
<svg version="1.1" id="Слой_1" xmlns="http://www.w3.org/2000/svg" xmlns:xlink="http://www.w3.org/1999/xlink" x="0px" y="0px"
	 width="103px" height="103px" viewBox="0 0 103 103" enable-background="new 0 0 103 103" xml:space="preserve">
<g>
	<defs>
		<rect id="SVGID_1_" width="103" height="103"/>
	</defs>
	<clipPath id="SVGID_2_">
		<use xlink:href="#SVGID_1_"  overflow="visible"/>
	</clipPath>
	
		<circle clip-path="url(#SVGID_2_)" fill="none" stroke="#d2393c" stroke-width="3" stroke-miterlimit="10" cx="51.5" cy="51.5" r="50"/>
	<rect fill="#d2393c" x="57.5" y="29.9" clip-path="url(#SVGID_2_)" width="2.4" height="9.6"/>
	<path fill="#d2393c" clip-path="url(#SVGID_2_)" d="M87.463,77.646c-0.015-0.066-0.036-0.131-0.061-0.194c-0.013-0.029-0.015-0.061-0.028-0.089
		l-13.201-26.4c-0.115-0.231-0.304-0.421-0.535-0.536l-5.293-2.646c-1.533-0.767-3.203-1.263-4.908-1.482
		c0.651-1.384,1.073-2.892,1.207-4.486c4.091-0.56,7.257-4.069,7.257-8.312v-7.2c0-0.662-0.538-1.2-1.2-1.2h-7.2h-24h-7.2
		c-0.663,0-1.2,0.538-1.2,1.2v7.2c0,4.243,3.165,7.752,7.256,8.312c0.134,1.594,0.556,3.103,1.207,4.486
		c-1.705,0.219-3.374,0.715-4.908,1.482l-5.293,2.646c-0.231,0.116-0.421,0.305-0.536,0.536l-13.2,26.4
		c-0.015,0.028-0.017,0.06-0.028,0.089c-0.025,0.063-0.047,0.128-0.061,0.194c-0.012,0.053-0.019,0.105-0.023,0.159
		C15.51,77.837,15.5,77.868,15.5,77.9V86.3c0,0.485,0.293,0.923,0.74,1.109c0.449,0.185,0.964,0.083,1.308-0.261
		c3.941-3.941,9.179-6.11,14.752-6.11c5.573,0,10.81,2.169,14.751,6.11c0.225,0.226,0.531,0.352,0.849,0.352h7.2
		c0.317,0,0.624-0.126,0.848-0.352c3.941-3.941,9.179-6.11,14.752-6.11s10.811,2.169,14.751,6.11
		c0.229,0.229,0.537,0.352,0.85,0.352c0.154,0,0.31-0.03,0.459-0.091c0.447-0.187,0.74-0.624,0.74-1.109V77.9
		c0-0.032-0.011-0.063-0.014-0.096C87.482,77.751,87.476,77.7,87.463,77.646 M62.089,48.579c1.798,0.084,3.577,0.546,5.182,1.349
		l4.936,2.467l11.582,23.165c-0.409-0.151-0.824-0.285-1.237-0.423c-0.213-0.07-0.424-0.148-0.636-0.218
		c-0.759-0.241-1.522-0.463-2.293-0.661c-0.092-0.023-0.185-0.041-0.275-0.064c-0.683-0.17-1.367-0.325-2.058-0.462
		c-0.228-0.045-0.457-0.081-0.686-0.123c-0.563-0.103-1.127-0.196-1.694-0.275c-0.254-0.036-0.508-0.066-0.763-0.098
		c-0.557-0.068-1.111-0.124-1.669-0.17c-0.248-0.021-0.497-0.042-0.745-0.058c-0.597-0.039-1.193-0.06-1.79-0.073
		c-0.206-0.005-0.411-0.015-0.616-0.016c-0.803-0.005-1.605,0.006-2.407,0.048c-0.409,0.021-0.814,0.056-1.219,0.104
		c-0.146,0.018-0.291,0.047-0.438,0.068c-0.255,0.037-0.509,0.07-0.761,0.119c-0.331,0.063-0.657,0.142-0.982,0.224
		c-0.065,0.016-0.13,0.026-0.195,0.044c-4.306,1.135-8.097,3.869-10.626,7.604V68.3h9.6c0.663,0,1.201-0.538,1.201-1.199V62.3
		c0-0.662-0.538-1.199-1.201-1.199c-3.308,0-6-2.692-6-6c0-0.673,0.118-1.345,0.352-2c0.032-0.091,0.053-0.185,0.062-0.278
		c0.123-0.053,0.24-0.118,0.36-0.174c0.184-0.085,0.368-0.169,0.546-0.265c0.24-0.126,0.472-0.265,0.703-0.407
		c0.174-0.105,0.353-0.204,0.522-0.317c0.362-0.244,0.713-0.503,1.049-0.781c0.166-0.136,0.319-0.289,0.478-0.434
		c0.188-0.172,0.378-0.342,0.558-0.524c0.154-0.159,0.299-0.325,0.445-0.491c0.173-0.196,0.342-0.393,0.503-0.6
		C61.944,48.745,62.023,48.668,62.089,48.579 M49.011,53.9h4.976c-0.059,0.397-0.087,0.799-0.087,1.2c0,4.225,3.134,7.729,7.2,8.314
		V65.9H41.9v-2.485c4.065-0.585,7.2-4.09,7.2-8.314C49.1,54.699,49.071,54.298,49.011,53.9 M69.5,33.5
		c0,2.898-2.064,5.322-4.8,5.879V27.5h4.8V33.5z M62.301,40.7c0,2.231-0.682,4.307-1.846,6.03c-0.217,0.323-0.454,0.627-0.702,0.92
		c-0.104,0.125-0.218,0.242-0.33,0.363c-0.158,0.172-0.321,0.34-0.491,0.503c-0.129,0.123-0.262,0.243-0.397,0.361
		c-0.175,0.151-0.357,0.292-0.541,0.431c-0.132,0.1-0.26,0.204-0.396,0.297c-0.313,0.214-0.634,0.415-0.966,0.594
		c-0.092,0.05-0.189,0.09-0.285,0.138c-0.267,0.135-0.535,0.262-0.813,0.373c-0.131,0.053-0.264,0.098-0.396,0.145
		c-0.256,0.092-0.513,0.175-0.774,0.246c-0.136,0.038-0.273,0.074-0.409,0.106c-0.278,0.065-0.562,0.117-0.847,0.159
		c-0.123,0.018-0.244,0.042-0.369,0.056C52.33,51.47,51.917,51.5,51.5,51.5c-0.418,0-0.831-0.03-1.239-0.077
		c-0.123-0.014-0.244-0.038-0.368-0.056c-0.286-0.043-0.568-0.094-0.847-0.159c-0.138-0.032-0.274-0.068-0.41-0.105
		c-0.261-0.072-0.519-0.155-0.774-0.246c-0.133-0.049-0.266-0.093-0.397-0.146c-0.277-0.111-0.546-0.238-0.812-0.373
		c-0.094-0.048-0.193-0.087-0.286-0.138c-0.332-0.18-0.653-0.38-0.965-0.594c-0.136-0.093-0.265-0.196-0.396-0.296
		c-0.183-0.139-0.366-0.281-0.541-0.432c-0.135-0.116-0.267-0.237-0.397-0.361c-0.169-0.161-0.333-0.33-0.492-0.503
		c-0.111-0.12-0.224-0.238-0.33-0.363c-0.247-0.294-0.485-0.598-0.702-0.92c-1.164-1.724-1.844-3.8-1.844-6.031V27.5h21.601V40.7z
		 M33.5,33.5v-6h4.8v11.879C35.565,38.822,33.5,36.398,33.5,33.5 M30.794,52.396l4.935-2.467c1.605-0.803,3.384-1.265,5.182-1.349
		c0.066,0.089,0.144,0.166,0.212,0.253c0.162,0.205,0.33,0.405,0.503,0.601c0.147,0.165,0.292,0.332,0.446,0.49
		c0.179,0.182,0.369,0.353,0.558,0.525c0.159,0.145,0.312,0.297,0.477,0.434c0.336,0.277,0.686,0.536,1.049,0.78
		c0.169,0.114,0.348,0.212,0.522,0.318c0.231,0.141,0.462,0.28,0.703,0.407c0.179,0.094,0.362,0.178,0.546,0.265
		c0.121,0.056,0.238,0.121,0.361,0.174c0.009,0.093,0.03,0.186,0.063,0.277c0.231,0.653,0.349,1.325,0.349,1.998
		c0,3.308-2.692,6-6,6c-0.663,0-1.2,0.537-1.2,1.199v4.801c0,0.661,0.537,1.199,1.2,1.199h9.6v12.84
		c-3.217-4.757-8.466-7.882-14.219-8.172c-0.139-0.007-0.279-0.002-0.416-0.009c-0.124-0.005-0.245-0.02-0.369-0.023
		c-0.445-0.015-0.888-0.021-1.333-0.021c-0.09,0-0.18,0.006-0.27,0.006c-0.185,0.001-0.37,0.008-0.555,0.012
		c-0.596,0.013-1.192,0.036-1.789,0.073c-0.222,0.015-0.444,0.028-0.666,0.045c-0.682,0.053-1.364,0.121-2.043,0.207
		c-0.084,0.012-0.168,0.018-0.252,0.028c-0.753,0.099-1.502,0.224-2.247,0.364c-0.217,0.041-0.433,0.088-0.649,0.131
		c-0.558,0.114-1.112,0.238-1.666,0.375c-0.219,0.054-0.439,0.106-0.658,0.163c-0.736,0.192-1.468,0.399-2.193,0.632
		c-0.033,0.011-0.067,0.025-0.1,0.035c-0.558,0.18-1.114,0.37-1.664,0.572L30.794,52.396z M17.9,83.629v-4.937
		c0.241-0.106,0.482-0.209,0.725-0.311c0.354-0.146,0.708-0.294,1.065-0.429c0.369-0.141,0.74-0.271,1.112-0.399
		c0.356-0.123,0.711-0.247,1.069-0.359c0.38-0.12,0.764-0.229,1.148-0.338c0.359-0.103,0.717-0.204,1.079-0.295
		c0.385-0.099,0.771-0.185,1.159-0.271c0.368-0.082,0.737-0.165,1.106-0.237c0.382-0.072,0.766-0.135,1.149-0.198
		c0.383-0.063,0.765-0.125,1.149-0.177c0.372-0.051,0.745-0.089,1.119-0.129c0.398-0.042,0.798-0.084,1.197-0.113
		c0.365-0.027,0.73-0.044,1.095-0.062c0.408-0.019,0.814-0.038,1.223-0.046c0.365-0.005,0.732,0,1.098,0.003
		c0.375,0.003,0.751,0.008,1.125,0.023c5.921,0.299,11.191,3.758,13.841,8.92c0.026,0.054,0.051,0.106,0.077,0.161
		c0.108,0.218,0.207,0.44,0.306,0.664h-1.355C39.959,77.021,26.895,76.53,17.9,83.629 M54.61,85.101h-1.359
		c0.064-0.149,0.131-0.297,0.201-0.442c0.071-0.147,0.138-0.296,0.213-0.441c0.111-0.219,0.231-0.431,0.353-0.643
		c0.075-0.131,0.146-0.267,0.225-0.395c0.141-0.233,0.292-0.461,0.445-0.686c0.066-0.1,0.13-0.203,0.199-0.301
		c0.227-0.32,0.463-0.632,0.71-0.935c0.013-0.014,0.025-0.027,0.038-0.042c0.234-0.286,0.479-0.563,0.732-0.832
		c0.088-0.094,0.181-0.18,0.271-0.27c0.182-0.186,0.365-0.369,0.557-0.545c0.11-0.103,0.226-0.197,0.338-0.295
		c0.178-0.154,0.357-0.31,0.541-0.457c0.125-0.101,0.254-0.193,0.381-0.289c0.182-0.136,0.363-0.271,0.548-0.399
		c0.136-0.092,0.273-0.181,0.411-0.27c0.187-0.12,0.373-0.237,0.564-0.35c0.143-0.084,0.286-0.164,0.432-0.243
		c0.193-0.105,0.388-0.207,0.585-0.305c0.148-0.073,0.296-0.144,0.446-0.213c0.201-0.092,0.406-0.178,0.613-0.262
		c0.15-0.063,0.301-0.123,0.453-0.181c0.213-0.076,0.428-0.147,0.644-0.218c0.151-0.049,0.302-0.099,0.454-0.144
		c0.227-0.064,0.458-0.12,0.688-0.175c0.146-0.035,0.289-0.073,0.437-0.104c0.256-0.053,0.517-0.094,0.776-0.134
		c0.124-0.02,0.246-0.045,0.37-0.061c0.387-0.05,0.775-0.087,1.167-0.106c0.791-0.04,1.582-0.054,2.373-0.047
		c0.21,0.002,0.42,0.018,0.631,0.023c0.578,0.015,1.158,0.031,1.735,0.071c0.274,0.02,0.546,0.054,0.819,0.078
		c0.51,0.045,1.021,0.09,1.531,0.154c0.311,0.04,0.616,0.095,0.925,0.142c0.47,0.072,0.94,0.141,1.406,0.229
		c0.329,0.062,0.654,0.139,0.981,0.209c0.443,0.095,0.886,0.187,1.325,0.297c0.338,0.084,0.672,0.184,1.007,0.276
		c0.423,0.117,0.847,0.232,1.266,0.364c0.342,0.107,0.68,0.227,1.019,0.344c0.406,0.14,0.812,0.277,1.212,0.43
		c0.342,0.13,0.679,0.271,1.018,0.41c0.272,0.112,0.544,0.227,0.814,0.346v4.937C76.106,76.53,63.04,77.021,54.61,85.101"/>
	<path fill="#d2393c" clip-path="url(#SVGID_2_)" d="M86.3,20.3c-1.985,0-3.6-1.615-3.6-3.599c0-0.663-0.537-1.201-1.2-1.201
		c-0.662,0-1.2,0.538-1.2,1.201c0,1.984-1.615,3.599-3.6,3.599c-0.662,0-1.2,0.538-1.2,1.2c0,0.663,0.538,1.201,1.2,1.201
		c1.984,0,3.6,1.615,3.6,3.599c0,0.663,0.538,1.2,1.2,1.2c0.663,0,1.2-0.537,1.2-1.2c0-1.984,1.614-3.599,3.6-3.599
		c0.662,0,1.2-0.538,1.2-1.201C87.5,20.837,86.962,20.3,86.3,20.3 M81.5,22.704c-0.342-0.455-0.749-0.862-1.204-1.204
		c0.455-0.341,0.862-0.749,1.204-1.203c0.342,0.454,0.749,0.862,1.204,1.203C82.249,21.842,81.842,22.249,81.5,22.704"/>
	<path fill="#d2393c" clip-path="url(#SVGID_2_)" d="M16.7,35.899c1.985,0,3.6,1.616,3.6,3.6c0,0.663,0.538,1.201,1.2,1.201
		c0.663,0,1.2-0.538,1.2-1.201c0-1.984,1.615-3.6,3.6-3.6c0.662,0,1.2-0.537,1.2-1.199c0-0.663-0.538-1.201-1.2-1.201
		c-1.985,0-3.6-1.615-3.6-3.6c0-0.662-0.537-1.199-1.2-1.199c-0.662,0-1.2,0.537-1.2,1.199c0,1.985-1.615,3.6-3.6,3.6
		c-0.662,0-1.2,0.538-1.2,1.201C15.5,35.363,16.038,35.899,16.7,35.899 M21.5,33.497c0.342,0.455,0.749,0.861,1.204,1.204
		c-0.455,0.341-0.862,0.748-1.204,1.203c-0.342-0.455-0.749-0.862-1.204-1.203C20.751,34.357,21.158,33.952,21.5,33.497"/>
	<path fill="#d2393c" clip-path="url(#SVGID_2_)" d="M40.7,22.7h2.4c0-3.971-3.229-7.2-7.2-7.2h-1.2v2.4h1.2C38.547,17.9,40.7,20.053,40.7,22.7"/>
	<path fill="#d2393c" clip-path="url(#SVGID_2_)" d="M70.7,17.9h1.2v-2.4h-1.2c-3.971,0-7.2,3.229-7.2,7.2h2.4C65.9,20.053,68.053,17.9,70.7,17.9"
		/>
	<polygon fill="#d2393c" clip-path="url(#SVGID_2_)" points="53.899,15.5 53.899,17.9 51.5,17.9 51.5,20.3 53.899,20.3 53.899,22.7 56.3,22.7 
		56.3,20.3 58.7,20.3 58.7,17.9 56.3,17.9 56.3,15.5 	"/>
	<polygon fill="#d2393c" clip-path="url(#SVGID_2_)" points="79.1,38.3 79.1,40.7 76.7,40.7 76.7,43.1 79.1,43.1 79.1,45.5 81.5,45.5 81.5,43.1 
		83.9,43.1 83.9,40.7 81.5,40.7 81.5,38.3 	"/>
	<rect fill="#d2393c" x="28.7" y="15.5" clip-path="url(#SVGID_2_)" width="2.4" height="2.4"/>
	<rect fill="#d2393c" x="82.7" y="32.3" clip-path="url(#SVGID_2_)" width="2.399" height="2.4"/>
	<rect fill="#d2393c" x="27.5" y="41.9" clip-path="url(#SVGID_2_)" width="2.4" height="2.4"/>
	<rect fill="#d2393c" x="15.5" y="22.7" clip-path="url(#SVGID_2_)" width="2.4" height="2.4"/>
</g>
</svg>
