<?xml version="1.0" encoding="utf-8"?>
<!-- Generator: Adobe Illustrator 15.1.0, SVG Export Plug-In . SVG Version: 6.00 Build 0)  -->
<!DOCTYPE svg PUBLIC "-//W3C//DTD SVG 1.1//EN" "http://www.w3.org/Graphics/SVG/1.1/DTD/svg11.dtd">
<svg version="1.1" id="Слой_1" xmlns="http://www.w3.org/2000/svg" xmlns:xlink="http://www.w3.org/1999/xlink" x="0px" y="0px"
	 width="103px" height="103px" viewBox="0 0 103 103" enable-background="new 0 0 103 103" xml:space="preserve">
<g>
	<defs>
		<rect id="SVGID_1_" width="103" height="103"/>
	</defs>
	<clipPath id="SVGID_2_">
		<use xlink:href="#SVGID_1_"  overflow="visible"/>
	</clipPath>
	<path fill="#d2393c" clip-path="url(#SVGID_2_)" d="M80.3,44.3h-3.651c-0.532-4.743-7.191-9.6-11.948-9.6h-2.4c-4.757,0-11.415,4.857-11.948,9.6
		H46.7c-0.662,0-1.2,0.536-1.2,1.2v7.2c0,0.664,0.538,1.2,1.2,1.2h4.8c0.663,0,1.2-0.536,1.2-1.2v-7.2
		c0-0.223-0.078-0.421-0.184-0.6H52.7c0-3.541,5.896-7.8,9.6-7.8h2.4c3.703,0,9.6,4.259,9.6,7.8v0.6v6.6
		c0,3.541-0.003,6.014-1.586,7.893c-1.322-1.618-2.922-2.948-4.712-3.813c2.339-1.493,3.898-4.104,3.898-7.08
		c0-4.631-3.769-8.4-8.4-8.4s-8.4,3.769-8.4,8.4c0,2.979,1.563,5.593,3.906,7.084c-1.779,0.865-3.434,2.224-4.833,3.982
		l-0.279-2.787c-0.061-0.612-0.576-1.08-1.193-1.08h-36c-0.336,0-0.655,0.141-0.883,0.387c-0.227,0.247-0.341,0.578-0.313,0.913
		l2.4,28.8c0.053,0.623,0.572,1.101,1.196,1.101h48c0.37,0,0.72-0.17,0.946-0.462c0.227-0.29,0.308-0.671,0.218-1.028l-1.199-4.801
		C66.931,80.674,66.451,80.3,65.9,80.3h-9.715l-0.84-8.399H75.5c0.663,0,1.2-0.536,1.2-1.2c0-2.92-0.956-6.023-2.574-8.693
		c2.163-2.18,2.511-4.917,2.563-8.106h3.61c0.662,0,1.2-0.536,1.2-1.2v-7.2C81.5,44.836,80.962,44.3,80.3,44.3 M50.3,51.5h-2.4v-4.8
		h2.4V51.5z M57.5,49.1c0-3.308,2.692-6,6-6c3.309,0,6,2.692,6,6s-2.691,6-6,6C60.192,55.1,57.5,52.408,57.5,49.1 M18.004,58.7
		h33.61l0.51,5.105v0.003l0.701,7.012l0.948,9.479H19.805L18.004,58.7z M64.963,82.7l0.601,2.399H20.204l-0.2-2.399H55.1H64.963z
		 M55.106,69.5l-0.558-5.57c1.724-3.166,4.924-6.43,8.951-6.43c2.853,0,5.435,1.645,7.362,4.01c-0.466,0.277-0.993,0.539-1.597,0.79
		h-2.385c-0.497-1.393-1.816-2.399-3.38-2.399c-1.984,0-3.6,1.614-3.6,3.6s1.615,3.6,3.6,3.6c1.563,0,2.883-1.007,3.38-2.399H69.5
		c0.153,0,0.304-0.029,0.447-0.085c0.867-0.348,1.619-0.723,2.278-1.122c1.086,1.872,1.806,3.974,2.014,6.007H55.106z M64.7,63.5
		c0,0.663-0.538,1.2-1.2,1.2c-0.661,0-1.2-0.537-1.2-1.2s0.539-1.2,1.2-1.2C64.162,62.3,64.7,62.837,64.7,63.5 M79.1,51.5H76.7v-4.8
		H79.1V51.5z"/>
	<path fill="#d2393c" clip-path="url(#SVGID_2_)" d="M26.3,15.5c-0.663,0-1.2,0.537-1.2,1.2v16.8c0,0.664,0.537,1.2,1.2,1.2h13.758l4.444,6.666
		c0.226,0.34,0.604,0.534,0.998,0.534c0.116,0,0.233-0.017,0.348-0.051c0.505-0.154,0.852-0.621,0.852-1.149v-6h8.4
		c0.662,0,1.2-0.536,1.2-1.2V16.7c0-0.663-0.538-1.2-1.2-1.2H26.3z M53.9,32.3h-8.4c-0.663,0-1.2,0.537-1.2,1.2v3.237l-2.602-3.903
		C41.476,32.501,41.102,32.3,40.7,32.3H27.5V17.9h26.4V32.3z"/>
	<rect fill="#d2393c" x="34.7" y="23.9" clip-path="url(#SVGID_2_)" width="2.4" height="2.4"/>
	<rect fill="#d2393c" x="39.5" y="23.9" clip-path="url(#SVGID_2_)" width="2.4" height="2.4"/>
	<rect fill="#d2393c" x="44.3" y="23.9" clip-path="url(#SVGID_2_)" width="2.4" height="2.4"/>
	<path fill="#d2393c" clip-path="url(#SVGID_2_)" d="M71.9,28.7c0,1.985,1.615,3.6,3.6,3.6c1.985,0,3.6-1.615,3.6-3.6c0-1.985-1.614-3.6-3.6-3.6
		C73.516,25.1,71.9,26.715,71.9,28.7 M75.5,27.5c0.662,0,1.2,0.538,1.2,1.2c0,0.662-0.538,1.2-1.2,1.2c-0.661,0-1.2-0.538-1.2-1.2
		C74.3,28.038,74.839,27.5,75.5,27.5"/>
	<rect fill="#d2393c" x="80.3" y="17.9" clip-path="url(#SVGID_2_)" width="2.4" height="2.4"/>
	<rect fill="#d2393c" x="82.7" y="15.5" clip-path="url(#SVGID_2_)" width="2.399" height="2.4"/>
	<rect fill="#d2393c" x="85.1" y="17.9" clip-path="url(#SVGID_2_)" width="2.4" height="2.4"/>
	<rect fill="#d2393c" x="82.7" y="20.3" clip-path="url(#SVGID_2_)" width="2.399" height="2.4"/>
	<path fill="#d2393c" clip-path="url(#SVGID_2_)" d="M31.136,67.391l1.201,4.8c0.132,0.535,0.612,0.909,1.163,0.909h6
		c0.37,0,0.719-0.17,0.946-0.462c0.227-0.29,0.309-0.671,0.218-1.028l-1.199-4.8c-0.134-0.535-0.614-0.91-1.165-0.91h-5.999
		c-0.37,0-0.719,0.171-0.946,0.462C31.127,66.652,31.047,67.032,31.136,67.391 M37.363,68.3l0.6,2.4h-3.525l-0.6-2.4H37.363z"/>
	
		<circle clip-path="url(#SVGID_2_)" fill="none" stroke="#d2393c" stroke-width="3" stroke-miterlimit="10" cx="51.5" cy="51.5" r="50"/>
</g>
</svg>
